
<?xml version="1.0" standalone="no"?><!DOCTYPE svg PUBLIC "-//W3C//DTD SVG 1.1//EN" "http://www.w3.org/Graphics/SVG/1.1/DTD/svg11.dtd"><svg t="1615122253332" class="icon" viewBox="0 0 1024 1024" version="1.1" xmlns="http://www.w3.org/2000/svg" p-id="8267" xmlns:xlink="http://www.w3.org/1999/xlink" width="200" height="200"><defs><style type="text/css"></style></defs><path d="M512 947.4c-77-1.1-143.2-10.9-196.7-29.1-42.1-14.4-63.7-29.7-72.9-36.2-2.5-1.8-4-2.9-5.5-3.6-5.8-4.1-38.6-34.8-62.6-89.9-14.1-32.3-22.5-67-25-103.1-3.1-44.7 2.9-91.7 17.8-139.8 15.2-49.1 38.4-94.5 69.1-135 24.6-32.5 53.9-61.9 87.3-87.5C374.7 284 419.4 266 428 262.7h167.9c8.7 3.3 53.9 21.5 105.1 60.9 33.2 25.6 62.5 55 87 87.4 30.5 40.4 53.7 85.8 68.8 134.7 14.9 48.1 20.8 95.1 17.8 139.8-2.5 36.1-10.9 70.8-25 103.1-24 55.1-56.8 85.9-62.6 89.9-1.5 0.7-2.9 1.8-5.5 3.6-9.2 6.5-30.7 21.8-72.9 36.2-53.4 18.2-119.6 28-196.6 29.1z" fill="#ED393A" p-id="8268"></path><path d="M594.1 272.6c11.2 4.4 52.8 21.9 100.3 58.4 32.6 25 61.4 53.8 85.4 85.6 30 39.6 52.7 84 67.5 132 14.3 46.3 20.2 91.6 17.4 134.6-2.2 34.7-10.1 68.1-23.3 99.2-12.3 28.9-27.1 50.5-37.3 63.4-11.1 14.1-20 22.2-22.5 24.2-1.8 1-3.6 2.2-5.9 3.9-8.8 6.3-29.5 21-70.3 34.9-52.4 17.9-117.5 27.5-193.4 28.6-75.9-1.1-141-10.7-193.4-28.6-40.8-13.9-61.5-28.6-70.3-34.9-2.3-1.6-4-2.9-5.9-3.9-2.6-2.1-11.4-10.1-22.5-24.2-10.2-13-25-34.5-37.3-63.4-13.2-31.1-21.1-64.5-23.3-99.2-2.8-43 3.1-88.2 17.4-134.6 14.7-47.6 37.3-91.8 67-131.2 23.9-31.7 52.4-60.4 84.8-85.4 47.8-36.9 90.2-54.9 101.5-59.3h164.1m3.6-20.1H426.3s-200.7 70.1-268.7 290c-68 220 68 341.9 74.8 344.7 6.8 2.8 73.5 67.3 279.6 70.1 206.1-2.8 272.8-67.3 279.6-70.1 6.8-2.8 142.9-124.7 74.8-344.7-68-219.9-268.7-290-268.7-290z" fill="#771725" p-id="8269"></path><path d="M397.5 207.9c-3.3 0-6.1-2-7.3-5l-37.4-95.3c-1-2.5-0.7-5.1 0.8-7.3s3.9-3.4 6.5-3.4h0.9l101.2-18.3c17.1-3.1 34.6-4.7 52-4.7 18.2 0 36.4 1.7 54.3 5.1l94.4 17.8h0.9c2.6 0 5 1.2 6.5 3.4s1.8 4.8 0.8 7.3l-37.4 95.3c-1.2 3-4.1 5-7.3 5H397.5z" fill="#ED393A" p-id="8270"></path><path d="M514.2 83.9c17.5 0 35.2 1.7 52.4 4.9l93.5 17.7 0.7 0.1-35.8 91.3H399l-35.8-91.2 0.5-0.1L464 88.4c16.5-2.9 33.4-4.5 50.2-4.5m0-20c-18 0-36 1.6-53.7 4.8L360.2 86.9c-12.6 0-21.2 12.7-16.6 24.4l37.4 95.3c2.7 6.8 9.3 11.3 16.6 11.3h229c7.3 0 13.9-4.5 16.6-11.3l37.4-95.3c4.6-11.7-4-24.4-16.6-24.4l-93.5-17.7c-18.7-3.5-37.5-5.3-56.3-5.3z" fill="#771725" p-id="8271"></path><path d="M512 848.8c-5.4 0-10.4-2.1-14.2-5.9L307.5 652.6c-3.8-3.8-5.9-8.8-5.9-14.2s2.1-10.4 5.9-14.2l190.3-190.3c3.8-3.8 8.8-5.9 14.2-5.9s10.4 2.1 14.2 5.9l190.3 190.3c7.8 7.8 7.8 20.6 0 28.4L526.2 842.9c-3.8 3.8-8.8 5.9-14.2 5.9z" fill="#FFD400" p-id="8272"></path><path d="M512 438.1c1.6 0 4.6 0.4 7.1 3l190.3 190.3c3.9 3.9 3.9 10.3 0 14.3L519.1 835.9c-2.6 2.6-5.6 3-7.1 3-1.6 0-4.6-0.4-7.1-3L314.6 645.6c-3.9-3.9-3.9-10.3 0-14.3L504.9 441c2.5-2.6 5.5-2.9 7.1-2.9m0-20c-7.7 0-15.4 2.9-21.3 8.8L300.4 617.2c-11.7 11.7-11.7 30.8 0 42.5L490.7 850c5.9 5.9 13.6 8.8 21.3 8.8 7.7 0 15.4-2.9 21.3-8.8l190.3-190.3c11.7-11.7 11.7-30.8 0-42.5L533.3 426.9c-5.9-5.9-13.6-8.8-21.3-8.8z" fill="#771725" p-id="8273"></path><path d="M466.5 565.8l-0.3 0.3c-2 2-5.1 2-7 0l-15.5-15.5c-2-2-2-5.1 0-7l0.3-0.3c2-2 5.1-2 7 0l15.5 15.5c2 1.9 2 5.1 0 7zM485.2 643.6l-0.3 0.3c-1.9 2.1-5 2.3-7 0.6l-19.5-16.8c-2.1-1.9-2.3-5-0.6-7l0.3-0.3c1.9-2.1 5-2.3 7-0.6l19.5 16.8c2.1 1.8 2.4 4.9 0.6 7zM482.9 587.3v0.4c0 2.7-2.3 5-5 5H424c-2.7 0-5-2.3-5-5v-0.4c0-2.7 2.3-5 5-5h53.9c2.8 0 5 2.3 5 5zM590.1 562.1v0.4c0 2.7-2.3 5-5 5h-95.5c-2.7 0-5-2.3-5-5v-0.4c0-2.7 2.3-5 5-5h95.5c2.7 0 5 2.1 5 5zM573.3 610.1v0.4c0 2.7-2.3 5-5 5h-56.5c-2.7 0-5-2.3-5-5v-0.4c0-2.7 2.3-5 5-5h56.5c2.8 0 5 2.2 5 5zM581.5 639.5v0.4c0 2.7-2.3 5-5 5h-74.3c-2.7 0-5-2.3-5-5v-0.4c0-2.7 2.3-5 5-5h74.3c2.8 0 5 2.3 5 5zM581.5 669v0.4c0 2.7-2.3 5-5 5h-74.3c-2.7 0-5-2.3-5-5v-0.4c0-2.7 2.3-5 5-5h74.3c2.8 0 5 2.3 5 5zM581.5 703.1v0.4c0 2.7-2.3 5-5 5h-74.3c-2.7 0-5-2.3-5-5v-0.4c0-2.7 2.3-5 5-5h74.3c2.8 0 5 2.3 5 5zM573.3 583v0.4c0 2.7-2.3 5-5 5h-56.5c-2.7 0-5-2.3-5-5v-0.4c0-2.7 2.3-5 5-5h56.5c2.8 0.1 5 2.3 5 5z" fill="#771725" p-id="8274"></path><path d="M454.8 621h0.4c2.7 0 5 2.3 5 5v89.2c0 2.7-2.3 5-5 5h-0.4c-2.7 0-5-2.3-5-5V626c0-2.9 2.3-5 5-5zM509.1 578.1h0.4c2.7 0 5 2.3 5 5v34.1c0 2.7-2.3 5-5 5h-0.4c-2.7 0-5-2.3-5-5V583c0-2.7 2.3-4.9 5-4.9zM497 629.5h0.4c2.7 0 5 2.3 5 5v79c0 2.7-2.3 5-5 5h-0.4c-2.7 0-5-2.3-5-5v-79c0-2.8 2.3-5 5-5zM578.3 629.5h0.4c2.7 0 5 2.3 5 5v79c0 2.7-2.3 5-5 5h-0.4c-2.7 0-5-2.3-5-5v-79c0-2.8 2.2-5 5-5zM567.8 578.1h0.4c2.7 0 5 2.3 5 5v34.1c0 2.7-2.3 5-5 5h-0.4c-2.7 0-5-2.3-5-5V583c0.1-2.7 2.3-4.9 5-4.9zM537.1 639.8h0.4c2.7 0 5 2.3 5 5V701c0 2.7-2.3 5-5 5h-0.4c-2.7 0-5-2.3-5-5v-56.2c0-2.7 2.2-5 5-5z" fill="#771725" p-id="8275"></path><path d="M480.5 583l0.4 0.3c2.3 1.6 2.9 4.6 1.4 7L428.8 671c-1.6 2.3-4.6 2.9-7 1.4l-0.4-0.3c-2.3-1.6-2.9-4.6-1.4-7l53.5-80.7c1.5-2.2 4.7-2.8 7-1.4z" fill="#771725" p-id="8276"></path></svg>